#!OML:ASF G:\JayActor3\Patient Classification 1\Patient 1\Session 6\male.ASF
:FULLY-SPECIFIED
:DEGREES
411
root 37.9684 15.7327 -14.6905 -195.789 -34.3718 -163.506
lowerback 2.03072 1.73879 11.599
upperback 0.181919 2.46081 2.0019
thorax -0.544124 1.14639 -4.45203
lowerneck 5.01344 7.81121 5.78669
upperneck -6.73024 10.9489 2.02589
head -2.81092 5.15855 -0.733088
rclavicle -4.14466e-014 -2.78299e-014
rhumerus 2.1515 55.1059 -70.7597
rradius 85.3746
rwrist -32.7735
rhand -16.7397 -13.795
rfingers 7.12502
rthumb 9.48646 -43.5615
lclavicle -4.14466e-014 -2.78299e-014
lhumerus -47.4025 -17.8226 70.8574
lradius 63.0839
lwrist 58.8059
lhand -9.54386 22.3649
lfingers 7.12502
lthumb 16.4229 51.6897
rfemur 8.43047 -3.83459 34.0185
rtibia 23.9447
rfoot -20.9463 -11.8574
rtoes -7.35877
lfemur -27.9136 8.02628 -15.4174
ltibia 39.6429
lfoot -16.2508 -0.0307696
ltoes -20.8601
412
root 37.8289 15.7354 -14.8491 -195.914 -34.4455 -163.344
lowerback 1.94167 1.85074 11.8396
upperback 0.18517 2.59778 2.01826
thorax -0.457982 1.2171 -4.56484
lowerneck 5.0138 7.78212 5.78417
upperneck -6.67432 10.9093 2.03667
head -2.79356 5.14119 -0.726389
rclavicle 8.13029e-014 -4.13472e-014
rhumerus 2.80323 55.2365 -70.2651
rradius 85.4277
rwrist -32.9441
rhand -16.7334 -13.8285
rfingers 7.12502
rthumb 9.49259 -43.5947
lclavicle 8.13029e-014 -4.13472e-014
lhumerus -47.4353 -17.7211 70.4761
lradius 63.0444
lwrist 58.7629
lhand -9.30578 22.4768
lfingers 7.12502
lthumb 16.6521 51.7825
rfemur 9.77282 -4.48913 33.8676
rtibia 22.9665
rfoot -20.6117 -11.665
rtoes -7.64811
lfemur -27.8063 8.87496 -15.8745
ltibia 36.6738
lfoot -15.5522 1.27391
ltoes -20.3594
413
root 37.6859 15.74 -15.0066 -196.011 -34.5067 -163.226
lowerback 1.82577 1.96402 12.0497
upperback 0.184488 2.73214 2.03258
thorax -0.361599 1.28738 -4.66128
lowerneck 5.02638 7.75738 5.77917
upperneck -6.60926 10.876 2.04549
head -2.77525 5.12748 -0.720454
rclavicle 1.39646e-014 -1.59028e-015
rhumerus 3.41102 55.3792 -69.8013
rradius 85.4728
rwrist -33.1021
rhand -16.7076 -13.8574
rfingers 7.12502
rthumb 9.51745 -43.6224
lclavicle 1.39646e-014 -1.59028e-015
lhumerus -47.4716 -17.5859 70.0862
lradius 62.9918
lwrist 58.7256
lhand -9.34251 22.4488
lfingers 7.12502
lthumb 16.6167 51.7574
rfemur 11.1394 -5.05371 33.655
rtibia 21.9492
rfoot -20.1569 -11.4819
rtoes -8.10366
lfemur -27.6741 9.78733 -16.3909
ltibia 33.9362
lfoot -14.5887 2.72353
ltoes -19.6578
414
root 37.54 15.7462 -15.1628 -196.092 -34.5504 -163.113
lowerback 1.67173 2.08055 12.2662
upperback 0.180622 2.86461 2.04644
thorax -0.246123 1.35778 -4.75937
lowerneck 5.04364 7.73546 5.78395
upperneck -6.53729 10.847 2.05022
head -2.75459 5.11604 -0.717488
rclavicle -1.31695e-014 6.36111e-015
rhumerus 3.98589 55.5185 -69.3743
rradius 85.5029
rwrist -33.2602
rhand -16.6519 -13.8801
rfingers 7.12502
rthumb 9.57121 -43.6427
lclavicle -1.31695e-014 6.36111e-015
lhumerus -47.497 -17.4206 69.6768
lradius 62.9235
lwrist 58.6863
lhand -9.64702 22.268
lfingers 7.12502
lthumb 16.3235 51.601
rfemur 12.5008 -5.51073 33.425
rtibia 20.9117
rfoot -19.587 -11.303
rtoes -8.66491
lfemur -27.5638 10.736 -16.9197
ltibia 31.4912
lfoot -13.404 4.20005
ltoes -18.7944
415
root 37.3922 15.7538 -15.3175 -196.162 -34.5783 -162.97
lowerback 1.4727 2.19992 12.5102
upperback 0.170876 2.99326 2.06512
thorax -0.109999 1.42706 -4.86474
lowerneck 5.06364 7.71541 5.80865
upperneck -6.4702 10.8214 2.04322
head -2.73426 5.10597 -0.721715
rclavicle 5.22804e-014 -3.18055e-014
rhumerus 4.543 55.6495 -68.9739
rradius 85.5171
rwrist -33.4211
rhand -16.5705 -13.8932
rfingers 7.12502
rthumb 9.64977 -43.6521
lclavicle 5.22804e-014 -3.18055e-014
lhumerus -47.5048 -17.2218 69.2415
lradius 62.843
lwrist 58.6379
lhand -10.1127 21.9999
lfingers 7.12502
lthumb 15.8751 51.3691
rfemur 13.8124 -5.85519 33.2199
rtibia 19.89
rfoot -18.9041 -11.1381
rtoes -9.35851
lfemur -27.5225 11.7175 -17.43
ltibia 29.3901
lfoot -12.0551 5.61277
ltoes -18.0608
416
root 37.2428 15.7621 -15.4709 -196.238 -34.5827 -162.766
lowerback 1.2315 2.32656 12.8036
upperback 0.156623 3.12316 2.09492
thorax 0.048574 1.49764 -4.98255
lowerneck 5.0767 7.69349 5.85477
upperneck -6.40861 10.7936 2.02675
head -2.71285 5.0944 -0.732019
rclavicle -1.02374e-014 -7.95139e-015
rhumerus 5.08248 55.7608 -68.5993
rradius 85.5153
rwrist -33.5836
rhand -16.4573 -13.901
rfingers 7.12502
rthumb 9.75901 -43.6549
lclavicle -1.02374e-014 -7.95139e-015
lhumerus -47.4866 -16.9986 68.7817
lradius 62.7503
lwrist 58.577
lhand -10.5813 21.7719
lfingers 7.12502
lthumb 15.4238 51.1765
rfemur 15.0402 -6.09464 33.0738
rtibia 18.9388
rfoot -18.1218 -10.9846
rtoes -10.1761
lfemur -27.5618 12.7313 -17.8924
ltibia 27.6626
lfoot -10.6495 6.86473
ltoes -17.3007
417
root 37.0928 15.7705 -15.6232 -196.333 -34.5721 -162.497
lowerback 0.964394 2.44657 13.133
upperback 0.127955 3.23776 2.14954
thorax 0.205625 1.55919 -5.09203
lowerneck 5.12249 7.68442 5.87722
upperneck -6.35627 10.7855 2.02535
head -2.70245 5.09193 -0.73647
rclavicle 2.6339e-014 5.24792e-014
rhumerus 5.60224 55.8973 -68.2519
rradius 85.4937
rwrist -33.7548
rhand -16.3309 -13.9118
rfingers 7.12502
rthumb 9.88094 -43.6599
lclavicle 2.6339e-014 5.24792e-014
lhumerus -47.4948 -16.7194 68.3133
lradius 62.6599
lwrist 58.5066
lhand -10.9404 21.656
lfingers 7.12502
lthumb 15.0779 51.0869
rfemur 16.1481 -6.2477 32.9953
rtibia 18.1369
rfoot -17.272 -10.8303
rtoes -11.0887
lfemur -27.6643 13.7831 -18.3066
ltibia 26.3121
lfoot -9.29762 7.93042
ltoes -16.678
418
root 36.9427 15.7785 -15.7748 -196.441 -34.5677 -162.219
lowerback 0.695124 2.55544 13.437
upperback 0.0950357 3.33447 2.21788
thorax 0.354851 1.61106 -5.17222
lowerneck 5.19784 7.68376 5.88544
upperneck -6.31844 10.7909 2.02675
head -2.70308 5.09563 -0.740209
rclavicle -7.95139e-015 5.56597e-015
rhumerus 6.09214 56.0549 -67.9296
rradius 85.468
rwrist -33.9303
rhand -16.209 -13.9184
rfingers 7.12502
rthumb 9.99848 -43.6609
lclavicle -7.95139e-015 5.56597e-015
lhumerus -47.5248 -16.3916 67.836
lradius 62.5701
lwrist 58.449
lhand -11.1128 21.6416
lfingers 7.12502
lthumb 14.9118 51.0849
rfemur 17.1138 -6.33394 32.9319
rtibia 17.5801
rfoot -16.3902 -10.6658
rtoes -12.0489
lfemur -27.7738 14.8903 -18.7335
ltibia 25.3063
lfoot -8.05685 8.8369
ltoes -16.4052
419
root 36.7928 15.7859 -15.9261 -196.57 -34.5837 -161.98
lowerback 0.471252 2.64706 13.6636
upperback 0.0557446 3.4146 2.29731
thorax 0.463955 1.6521 -5.20031
lowerneck 5.30547 7.69589 5.87232
upperneck -6.28686 10.8156 2.0392
head -2.71323 5.10852 -0.739599
rclavicle 2.96686e-014 2.62396e-014
rhumerus 6.48761 56.2387 -67.6697
rradius 85.4485
rwrist -34.0954
rhand -16.0973 -13.9276
rfingers 7.12502
rthumb 10.1063 -43.6649
lclavicle 2.96686e-014 2.62396e-014
lhumerus -47.5992 -16.0249 67.3692
lradius 62.4831
lwrist 58.4131
lhand -11.0865 21.797
lfingers 7.12502
lthumb 14.9371 51.2384
rfemur 17.9238 -6.37825 32.8322
rtibia 17.3679
rfoot -15.5161 -10.4693
rtoes -12.9557
lfemur -27.8118 16.056 -19.2107
ltibia 24.5926
lfoot -6.94509 9.63165
ltoes -16.6138
420
root 36.643 15.7925 -16.0773 -196.709 -34.6453 -161.847
lowerback 0.306574 2.71375 13.7647
upperback 0.0274326 3.47228 2.36066
thorax 0.540511 1.68169 -5.17957
lowerneck 5.43843 7.72654 5.85913
upperneck -6.26663 10.8676 2.05394
head -2.73151 5.13415 -0.74079
rclavicle -2.78795e-014 -6.36111e-014
rhumerus 6.8162 56.4341 -67.4743
rradius 85.4273
rwrist -34.2502
rhand -16.0143 -13.9389
rfingers 7.12502
rthumb 10.1863 -43.6723
lclavicle -2.78795e-014 -6.36111e-014
lhumerus -47.6966 -15.6394 66.8956
lradius 62.3922
lwrist 58.4181
lhand -11.032 21.8554
lfingers 7.12502
lthumb 14.9896 51.2929
rfemur 18.5657 -6.41522 32.6178
rtibia 17.5791
rfoot -14.6669 -10.2234
rtoes -13.7758
lfemur -27.696 17.2058 -19.7633
ltibia 24.1063
lfoot -6.00702 10.3735
ltoes -16.9093
